<?xml version="1.0" standalone="no"?>
<!DOCTYPE svg PUBLIC "-//W3C//DTD SVG 20010904//EN"
 "http://www.w3.org/TR/2001/REC-SVG-20010904/DTD/svg10.dtd">
<svg version="1.0" xmlns="http://www.w3.org/2000/svg"
 width="400.000000pt" height="400.000000pt" viewBox="0 0 400.000000 400.000000"
 preserveAspectRatio="xMidYMid meet">
<metadata>
Created by potrace 1.14, written by Peter Selinger 2001-2017
</metadata>
<g transform="translate(0.000000,400.000000) scale(0.100000,-0.100000)"
fill="#000000" stroke="none">
<path d="M1803 3990 c-831 -88 -1520 -673 -1732 -1471 -45 -167 -61 -284 -68
-475 -7 -187 1 -215 37 -145 24 48 53 58 115 41 38 -11 50 -10 85 4 23 9 52
13 65 10 17 -4 26 -2 29 7 2 8 12 39 21 69 10 30 23 84 30 120 39 198 84 263
160 234 41 -16 64 -153 36 -225 -6 -16 -7 2 -4 56 4 64 2 88 -13 120 l-18 40
-8 -65 c-4 -36 -8 -73 -8 -83 -1 -11 -14 -45 -30 -78 -21 -44 -27 -68 -23 -97
7 -50 -19 -112 -46 -112 -16 0 -21 -6 -21 -25 0 -14 -5 -25 -11 -25 -7 0 -5
-10 5 -25 24 -36 20 -70 -9 -89 -23 -15 -25 -23 -25 -87 0 -94 -29 -148 -44
-81 -3 15 -22 45 -42 67 -34 37 -33 31 7 -32 13 -22 11 -26 -39 -69 -28 -25
-52 -52 -52 -60 0 -8 -7 -14 -15 -14 -8 0 -15 5 -15 11 0 6 -8 8 -19 4 -23 -7
-41 19 -41 59 0 14 -5 28 -10 31 -7 4 -9 -2 -5 -17 3 -12 1 -29 -4 -37 -8 -12
-12 -12 -25 -2 -14 12 -15 10 -10 -20 24 -123 155 -449 180 -449 7 0 11 -6 8
-14 -12 -30 202 -348 218 -323 5 8 8 6 8 -8 0 -11 7 -28 14 -38 12 -15 18 -16
33 -6 25 15 60 -2 134 -67 l54 -48 -49 51 c-27 28 -64 59 -82 69 -19 10 -34
21 -34 24 0 8 100 67 128 75 62 18 282 -199 366 -362 24 -48 12 -40 -25 15
-35 52 -118 142 -132 142 -4 0 3 -19 17 -43 13 -23 41 -91 62 -152 20 -60 42
-116 48 -124 24 -31 348 -172 362 -158 3 2 18 55 34 116 29 110 66 208 75 200
2 -3 -2 -29 -10 -59 -20 -74 -19 -114 4 -158 33 -64 111 -122 165 -122 15 0
34 -12 50 -31 l26 -31 0 30 c0 49 21 56 71 26 24 -14 33 -22 21 -19 -21 6 -23
4 -17 -14 6 -19 3 -21 -31 -16 -27 3 -34 1 -27 -6 6 -6 41 -14 77 -16 55 -5
70 -3 87 13 19 17 20 17 26 -4 5 -20 11 -22 83 -22 109 0 267 17 387 40 107
22 260 64 271 74 12 12 14 136 4 179 -14 54 -46 124 -74 159 -22 28 -22 28 -2
44 10 8 42 26 70 39 33 15 59 36 77 64 32 48 31 48 297 95 107 20 256 51 330
70 74 19 136 33 138 31 2 -2 13 6 24 17 11 11 22 18 24 15 2 -2 -5 -30 -16
-62 -11 -32 -18 -60 -16 -63 3 -2 19 24 35 59 20 42 41 70 61 82 104 62 304
500 350 769 6 35 13 74 16 87 4 18 -5 11 -36 -27 -22 -29 -43 -52 -45 -52 -3
0 11 25 31 55 64 101 68 120 68 330 0 192 -9 278 -45 436 l-20 87 -32 -2 c-31
-1 -32 0 -29 34 2 19 11 41 19 47 15 12 13 21 -17 100 -86 229 -226 457 -391
636 -53 57 -55 58 -84 46 l-30 -13 25 -4 c23 -4 24 -5 5 -13 -16 -6 -13 -8 15
-9 19 -1 30 -4 23 -6 -7 -3 -9 -12 -6 -20 3 -9 -5 -17 -23 -24 -64 -23 -71
-30 -22 -25 53 7 74 -10 26 -21 l-33 -7 25 -9 c24 -10 24 -11 5 -18 -18 -8
-17 -9 7 -9 42 -1 43 -19 1 -23 l-38 -4 50 -16 c55 -17 54 -18 -45 -37 l-45
-9 38 -1 c23 -1 36 -5 32 -11 -3 -5 -1 -10 4 -10 6 0 20 -9 30 -19 19 -19 19
-19 -2 -25 -12 -3 -33 -5 -47 -5 -23 1 -23 2 5 9 l30 8 -30 2 c-27 1 -28 2
-10 11 15 7 6 8 -30 5 -33 -3 -43 -2 -30 4 l20 9 -20 2 c-11 1 -36 1 -55 -1
-34 -2 -35 -2 -17 18 18 20 18 20 -2 27 -12 3 -18 11 -15 17 4 6 -2 6 -15 -1
-29 -16 -26 -1 9 47 31 43 37 58 20 47 -5 -3 -10 1 -10 9 0 9 14 22 30 31 32
17 41 29 13 18 -18 -7 -15 0 18 48 10 14 16 29 13 32 -12 12 40 29 70 23 l31
-6 -37 37 -38 37 -29 -34 c-16 -19 -59 -87 -95 -150 -71 -122 -98 -160 -115
-160 -6 0 -11 -4 -11 -10 0 -5 6 -10 14 -10 7 0 25 -9 39 -20 14 -11 33 -20
44 -20 10 0 31 -14 47 -30 16 -17 34 -30 41 -30 19 0 68 -57 60 -71 -5 -7 -4
-10 3 -5 6 3 17 -1 24 -9 7 -9 21 -24 30 -33 11 -11 15 -26 12 -39 -6 -20 -10
-18 -57 27 -65 60 -205 154 -232 155 -12 1 -26 5 -33 9 -15 9 -15 1 -1 -25 7
-14 16 -18 31 -13 29 9 115 -84 131 -143 6 -23 17 -43 24 -43 8 0 13 -13 13
-34 0 -19 6 -36 13 -39 8 -3 4 -13 -14 -32 l-26 -27 -7 26 c-3 14 -18 37 -32
51 -24 24 -27 25 -39 9 -10 -15 -10 -20 1 -32 18 -17 18 -27 -2 -43 -13 -10
-27 -9 -83 9 -183 59 -305 -10 -341 -195 -13 -67 -31 -84 -61 -57 -20 18 -27
84 -9 84 6 0 10 11 10 24 0 50 13 89 32 94 19 5 21 24 3 23 -6 0 -17 7 -25 14
-9 8 -23 13 -33 11 -23 -3 -55 -38 -49 -55 3 -8 0 -11 -7 -7 -7 5 -10 0 -9
-11 2 -10 -1 -36 -5 -58 -11 -56 4 -89 58 -127 44 -31 65 -61 25 -36 -23 15
-38 4 -21 -15 18 -22 2 -47 -30 -48 -45 -2 -47 -3 -61 -21 -9 -12 -33 -19 -73
-23 -85 -7 -117 -18 -126 -41 -9 -25 -3 -34 34 -57 15 -10 31 -26 34 -35 3 -9
17 -29 32 -45 23 -25 24 -31 13 -59 -38 -102 -130 -213 -183 -220 -43 -7 -100
7 -115 26 -6 9 -16 16 -22 16 -22 0 -18 26 9 53 38 36 23 34 -20 -3 -35 -30
-37 -60 -5 -60 10 0 14 -3 11 -6 -15 -16 50 -74 123 -110 19 -10 49 -29 67
-42 l32 -24 21 34 c11 18 20 36 20 40 0 11 74 53 95 54 11 0 32 3 48 7 16 5
36 3 50 -5 12 -7 27 -11 33 -10 6 1 18 -6 25 -15 13 -16 12 -17 -3 -5 -15 12
-16 8 -14 -37 3 -54 -3 -61 -47 -56 -17 2 -27 -2 -27 -10 0 -8 -7 -21 -16 -30
-14 -13 -19 -14 -25 -3 -6 9 -9 7 -9 -8 0 -17 -6 -22 -25 -20 -14 0 -25 4 -25
8 0 4 -17 16 -37 27 -30 15 -48 17 -85 11 -27 -4 -48 -4 -48 0 0 9 -61 21
-100 21 -14 0 -35 5 -47 11 -12 6 -30 7 -40 3 -15 -6 -12 -9 15 -15 39 -9 53
-20 25 -20 -11 0 -32 -11 -47 -23 l-27 -24 55 -17 c82 -26 227 -58 264 -59 45
-1 40 -14 -10 -28 -70 -19 -76 -21 -55 -26 9 -3 17 -9 17 -15 0 -15 228 -4
345 17 114 21 311 76 409 115 243 96 533 276 583 361 10 16 23 29 31 29 7 0
11 4 7 9 -3 6 14 39 39 76 24 36 54 90 66 121 16 39 27 54 39 52 9 -2 17 -12
18 -23 4 -29 -98 -217 -125 -231 -12 -6 -19 -14 -15 -17 9 -10 -35 -49 -47
-42 -5 3 -7 0 -4 -8 12 -31 -143 -150 -299 -228 -140 -71 -316 -134 -512 -184
-93 -24 -164 -44 -157 -44 19 -1 191 38 245 55 72 24 80 10 9 -16 -37 -14 -58
-26 -51 -30 7 -5 -2 -12 -22 -18 -63 -20 -264 -61 -349 -72 -189 -23 -490 -6
-639 36 -29 8 -60 13 -68 10 -8 -3 -11 -1 -8 4 3 6 2 10 -4 10 -5 0 -18 3 -28
6 -15 5 -16 4 -3 -6 23 -18 -25 -2 -80 25 -51 26 -96 60 -68 51 9 -2 -4 16
-29 40 -37 37 -42 48 -32 60 6 8 9 17 5 21 -3 4 -12 -2 -20 -12 -13 -18 -14
-17 -30 13 -9 18 -16 55 -16 88 0 47 -3 55 -16 50 -9 -3 -12 -2 -9 5 4 6 13 8
20 6 8 -4 17 10 25 34 14 41 32 65 23 29 -6 -24 2 -25 47 -1 31 17 36 25 46
80 10 58 10 61 -9 61 -19 0 -19 1 -4 18 10 10 17 24 17 31 0 6 7 14 15 17 8 4
13 10 10 14 -3 4 2 11 11 14 8 3 12 11 9 16 -4 6 1 22 9 35 10 15 12 25 6 25
-6 0 -8 5 -4 12 12 19 13 108 2 108 -6 0 -4 7 3 17 12 13 12 17 1 21 -10 3 -8
10 9 28 12 12 19 30 16 38 -4 9 1 17 11 20 23 8 74 90 66 109 -3 8 -1 18 5 22
7 4 8 12 2 23 -5 9 -11 33 -13 52 -3 19 -17 58 -31 87 -39 76 -95 269 -107
370 -6 48 -13 89 -16 92 -5 6 -21 -15 -86 -109 -28 -41 -52 -76 -53 -78 -6 -7
-37 12 -45 29 -21 39 65 197 174 319 31 34 56 66 56 71 0 5 8 9 19 9 10 0 49
20 87 45 79 52 194 99 295 120 70 15 159 20 159 9 0 -3 -27 -40 -59 -83 -58
-76 -61 -78 -112 -85 -55 -8 -192 -56 -224 -80 -25 -18 -20 -24 109 -127 55
-44 109 -87 120 -96 10 -8 38 -23 62 -33 24 -11 44 -24 44 -30 0 -6 -4 -8 -10
-5 -5 3 -10 -2 -11 -12 0 -15 -2 -14 -9 3 -9 24 -28 39 -37 31 -3 -3 3 -19 13
-35 13 -22 23 -29 42 -27 29 3 45 24 30 42 -7 9 -7 13 0 13 6 0 13 -4 16 -9 5
-8 57 -2 124 14 l23 6 -22 -30 c-24 -33 -36 -130 -20 -159 9 -15 11 -14 12 8
0 14 0 41 -1 60 -1 30 5 41 45 75 71 61 143 96 105 50 -8 -10 -10 -32 -6 -67
3 -29 2 -69 -3 -88 -7 -25 -9 -29 -10 -12 -2 34 -31 86 -42 75 -5 -5 -10 -45
-10 -89 0 -43 -5 -95 -10 -115 -10 -40 -3 -73 14 -62 6 4 8 -2 4 -16 -4 -18
-3 -20 9 -10 12 10 14 4 14 -34 0 -25 5 -49 10 -52 6 -4 10 11 10 37 0 65 9
91 26 77 12 -10 14 -1 12 58 -3 61 1 77 31 138 18 39 38 81 44 95 15 34 48 71
58 64 5 -3 9 -20 10 -37 0 -18 3 -26 6 -19 4 10 10 9 27 -7 29 -27 54 -14 36
19 -11 20 -10 25 6 36 11 7 25 19 33 25 10 9 15 9 22 -2 5 -8 9 -9 10 -4 0 6
4 -1 8 -14 11 -40 28 -35 40 13 10 42 13 45 35 36 34 -13 128 -2 150 18 16 15
75 93 203 269 21 28 38 56 38 61 0 33 -276 220 -442 299 -137 66 -191 74 -364
53 -329 -38 -607 -155 -818 -344 -193 -173 -298 -364 -370 -673 -35 -151 -52
-263 -50 -341 2 -48 3 -42 10 34 18 202 25 190 24 -41 0 -177 4 -251 17 -319
10 -49 16 -92 13 -94 -9 -9 -47 141 -60 239 l-14 104 5 -145 c12 -319 57 -492
176 -677 24 -37 47 -76 51 -86 12 -31 -30 -1 -59 43 -15 22 -28 40 -30 40 -6
0 7 -105 22 -176 8 -40 27 -91 43 -117 66 -104 244 -183 503 -224 90 -14 169
-18 390 -17 l277 1 6 -51 c3 -28 8 -67 11 -88 l5 -36 -78 -9 c-134 -14 -505
-8 -639 10 -257 36 -463 138 -526 261 -17 34 -22 69 -29 229 -5 123 -5 196 2
208 7 14 1 36 -30 96 -55 111 -97 251 -117 389 -13 96 -15 165 -11 354 4 132
12 270 20 315 20 108 47 218 58 230 12 12 11 28 -1 20 -65 -40 44 229 161 395
75 108 237 265 349 339 52 34 141 85 196 112 99 48 300 119 336 119 10 0 18 4
18 8 0 26 -406 49 -567 32z m-361 -247 c18 -16 24 -57 12 -87 -9 -23 -21 -20
-30 6 -4 13 -14 28 -22 34 -10 8 -13 17 -7 30 4 10 7 22 7 27 -3 13 21 7 40
-10z m1230 -68 c0 -5 -5 -11 -11 -13 -6 -2 -11 4 -11 13 0 9 5 15 11 13 6 -2
11 -8 11 -13z m-92 -195 c0 -5 -4 -10 -10 -10 -5 0 -10 5 -10 10 0 6 5 10 10
10 6 0 10 -4 10 -10z m-1390 -120 c0 -5 -4 -10 -10 -10 -5 0 -10 5 -10 10 0 6
5 10 10 10 6 0 10 -4 10 -10z m1330 -34 c0 -3 -4 -8 -10 -11 -5 -3 -10 -1 -10
4 0 6 5 11 10 11 6 0 10 -2 10 -4z m-1586 -51 c-4 -8 -11 -15 -16 -15 -6 0 -5
6 2 15 7 8 14 15 16 15 2 0 1 -7 -2 -15z m1376 -5 c0 -5 -4 -10 -10 -10 -5 0
-10 5 -10 10 0 6 5 10 10 10 6 0 10 -4 10 -10z m-1470 -40 c0 -11 -7 -20 -15
-20 -8 0 -15 9 -15 20 0 11 7 20 15 20 8 0 15 -9 15 -20z m1880 -110 c0 -5 -4
-10 -10 -10 -5 0 -10 5 -10 10 0 6 5 10 10 10 6 0 10 -4 10 -10z m-121 -74
c-40 -78 -60 -73 -25 6 22 49 43 72 55 62 2 -1 -12 -32 -30 -68z m-2099 -36
c0 -5 -5 -10 -11 -10 -5 0 -7 5 -4 10 3 6 8 10 11 10 2 0 4 -4 4 -10z m2912 3
c-12 -2 -20 -9 -17 -14 7 -10 -15 -12 -39 -3 -32 12 -15 24 32 23 26 -1 37 -4
24 -6z m27 -150 c0 -5 -4 -17 -9 -28 -8 -18 -9 -17 -9 8 -1 15 4 27 9 27 6 0
10 -3 9 -7z m11 -40 c-11 -17 -11 -17 -6 0 3 10 6 24 7 30 0 9 2 9 5 0 3 -7 0
-20 -6 -30z m-1970 -33 c0 -5 -4 -10 -10 -10 -5 0 -10 5 -10 10 0 6 5 10 10
10 6 0 10 -4 10 -10z m-1260 -45 c0 -8 -7 -15 -15 -15 -16 0 -20 12 -8 23 11
12 23 8 23 -8z m517 -56 c-9 -15 -13 -16 -19 -5 -12 22 1 49 18 35 10 -8 11
-15 1 -30z m2657 -1 c-1 -10 6 -20 16 -23 10 -3 26 -17 35 -32 l17 -26 -28 6
c-16 4 -64 10 -106 13 -43 4 -75 11 -72 15 3 5 -4 9 -16 9 -18 0 -17 3 12 30
29 27 39 30 88 27 45 -2 55 -5 54 -19z m-1714 -68 c0 -5 -4 -10 -10 -10 -5 0
-10 5 -10 10 0 6 5 10 10 10 6 0 10 -4 10 -10z m1237 -34 c-6 -37 21 -92 51
-103 9 -4 20 -11 23 -16 9 -13 80 26 118 65 18 18 35 45 38 61 7 32 15 33 118
10 55 -12 74 -20 71 -30 -3 -8 2 -13 12 -13 16 -1 16 -1 -1 -14 -9 -7 -19 -26
-21 -42 -5 -40 -17 -67 -35 -81 -13 -10 -13 -12 -2 -13 10 0 8 -7 -8 -24 -31
-33 -99 -50 -164 -41 -28 4 -72 10 -96 14 -51 7 -66 28 -24 34 25 4 24 4 -7 5
-54 2 -69 -13 -32 -32 17 -9 42 -16 56 -16 14 0 28 -5 32 -11 3 -6 26 -19 51
-30 50 -21 108 -26 97 -7 -5 8 3 9 31 5 31 -5 43 -2 67 18 36 30 85 35 69 8
-23 -40 -50 -63 -65 -57 -9 3 -22 2 -29 -4 -6 -6 -29 -13 -50 -17 -26 -5 -37
-12 -33 -21 3 -7 0 -15 -7 -18 -7 -2 -2 -5 11 -5 27 -1 64 -19 74 -36 4 -6 59
-25 123 -41 64 -16 112 -30 106 -32 -5 -2 -54 9 -109 23 -114 28 -142 31 -124
13 7 -7 8 -16 2 -23 -7 -8 12 -16 66 -29 41 -10 73 -20 71 -22 -2 -3 -33 2
-68 11 -35 8 -121 20 -191 26 -125 11 -128 11 -203 -15 -41 -14 -85 -26 -97
-26 l-21 0 21 -23 c12 -13 22 -26 22 -30 0 -4 -25 -7 -55 -7 -43 0 -55 -3 -55
-16 0 -8 -4 -13 -9 -10 -5 4 -11 2 -13 -4 -4 -13 -77 6 -99 26 -8 8 -20 14
-25 14 -18 0 -84 70 -84 89 0 32 54 109 96 137 22 14 52 39 67 55 15 16 32 29
36 29 5 0 11 9 14 21 4 16 11 19 26 14 17 -5 21 -2 21 16 0 19 2 20 17 8 15
-12 16 -12 10 5 -5 12 0 26 15 42 19 19 34 24 83 25 33 1 49 3 35 6 -62 9 -72
15 -85 46 -11 27 -11 36 0 57 7 14 16 33 19 43 3 9 15 17 27 17 19 0 21 -4 16
-34z m164 -31 c8 6 8 2 0 -14 -7 -11 -14 -21 -17 -21 -3 0 -3 4 1 9 3 5 1 12
-5 16 -5 3 -10 2 -10 -3 0 -6 -6 -12 -13 -15 -16 -6 -19 25 -3 35 6 4 16 2 23
-3 7 -6 17 -8 24 -4z m-1871 -212 c1 -85 10 -210 25 -320 l8 -53 -56 0 -56 0
-17 56 c-25 86 -22 225 6 298 22 58 58 106 80 106 6 0 10 -33 10 -87z m320 37
c0 -5 -4 -10 -10 -10 -5 0 -10 5 -10 10 0 6 5 10 10 10 6 0 10 -4 10 -10z
m-641 -49 c7 -13 6 -24 -4 -37 -8 -11 -14 -14 -15 -6 0 6 -5 12 -11 12 -16 0
-36 24 -31 38 6 19 50 14 61 -7z m2886 -11 c-16 -4 -39 -8 -50 -8 -16 0 -15 2
5 8 14 4 36 8 50 8 22 0 22 -1 -5 -8z m-112 -17 c-7 -2 -21 -2 -30 0 -10 3 -4
5 12 5 17 0 24 -2 18 -5z m-1123 -23 c-14 -11 -33 -22 -42 -26 -12 -3 -18 -16
-18 -35 0 -16 -4 -29 -10 -29 -5 0 -10 9 -10 19 0 28 -28 53 -51 46 -10 -4
-19 -2 -19 4 0 22 40 36 106 38 l69 2 -25 -19z m1028 13 c-10 -2 -28 -2 -40 0
-13 2 -5 4 17 4 22 1 32 -1 23 -4z m-115 -10 c-7 -2 -19 -2 -25 0 -7 3 -2 5
12 5 14 0 19 -2 13 -5z m-1843 -28 c0 -8 -4 -15 -10 -15 -5 0 -10 7 -10 15 0
8 5 15 10 15 6 0 10 -7 10 -15z m907 -37 c-3 -7 -5 -2 -5 12 0 14 2 19 5 13 2
-7 2 -19 0 -25z m-1047 2 c0 -5 -4 -10 -10 -10 -5 0 -10 5 -10 10 0 6 5 10 10
10 6 0 10 -4 10 -10z m-919 -226 c-23 -57 -28 -48 -6 11 8 22 15 58 16 80 l2
40 4 -41 c3 -25 -4 -59 -16 -90z m2677 70 c40 -26 18 -26 -39 1 -47 23 -50 25
-20 20 19 -3 46 -12 59 -21z m422 -19 c25 -13 41 -24 35 -24 -5 0 -30 11 -55
24 -25 13 -40 24 -35 24 6 0 30 -11 55 -24z m-213 9 c-3 -3 -12 -4 -19 -1 -8
3 -5 6 6 6 11 1 17 -2 13 -5z m83 -24 c18 -12 2 -12 -25 0 -13 6 -15 9 -5 9 8
0 22 -4 30 -9z m-1893 -6 c-3 -3 -12 -4 -19 -1 -8 3 -5 6 6 6 11 1 17 -2 13
-5z m-100 -20 c-3 -3 -12 -4 -19 -1 -8 3 -5 6 6 6 11 1 17 -2 13 -5z m1539
-20 c77 -31 139 -65 179 -99 26 -22 23 -21 -25 6 -30 18 -95 51 -145 75 -101
49 -105 57 -9 18z m559 11 c40 -18 16 -19 -26 0 -19 8 -27 14 -19 14 8 0 29
-6 45 -14z m-3018 -180 c67 -11 74 -21 85 -121 l10 -89 -38 -77 c-21 -43 -40
-76 -42 -74 -2 3 12 40 32 83 l35 79 -12 69 c-11 58 -16 69 -35 72 -16 2 -25
-4 -31 -20 -10 -26 -59 -51 -87 -45 -10 2 -29 21 -41 43 -12 22 -23 34 -23 28
0 -7 -4 -13 -10 -13 -11 0 -13 33 -4 68 9 32 61 44 94 22 14 -10 44 -21 67
-25z m2843 6 c-8 -5 -33 -12 -55 -15 l-40 -6 45 14 c53 17 71 19 50 7z m-95
-50 c-14 -13 -185 -65 -191 -58 -4 3 27 15 67 27 41 12 85 25 99 30 34 11 35
11 25 1z m330 -43 c-9 -55 -25 -73 -25 -29 0 31 15 71 26 71 3 0 3 -19 -1 -42z
m-2420 -19 c-13 -24 -25 -40 -25 -35 0 11 43 87 47 82 2 -2 -8 -23 -22 -47z
m2507 45 c4 -3 0 -17 -8 -32 -8 -15 -14 -32 -14 -39 0 -9 -8 -9 -30 -2 -32 11
-37 28 -20 60 10 18 59 27 72 13z m-2582 -63 c0 -21 -13 -41 -26 -41 -15 0
-17 10 -8 34 7 17 34 22 34 7z m35 -61 c-24 -47 -104 -168 -115 -175 -24 -15
-5 22 56 110 67 97 87 119 59 65z m-75 -10 c0 -5 -7 -10 -16 -10 -8 0 -12 5
-9 10 3 6 10 10 16 10 5 0 9 -4 9 -10z m220 -200 l0 -209 -42 -30 c-24 -16
-52 -38 -63 -48 -11 -10 -34 -25 -52 -32 -17 -7 -41 -23 -54 -37 -12 -13 -29
-24 -37 -24 -9 0 -35 -11 -59 -25 -24 -15 -71 -37 -106 -50 -34 -13 -89 -37
-122 -54 -33 -17 -63 -31 -67 -31 -3 0 -4 13 -2 30 3 17 1 30 -5 30 -6 0 -11
4 -11 10 0 5 7 7 15 4 9 -4 26 4 41 19 l26 26 -21 27 c-12 15 -19 30 -16 33 4
3 10 -1 15 -9 8 -13 10 -12 10 3 0 9 -6 17 -12 18 -10 0 -10 2 0 6 6 2 12 10
12 17 0 21 36 47 54 40 9 -4 16 -1 16 6 0 8 9 10 25 6 19 -5 23 -3 19 9 -7 16
13 48 25 40 4 -2 20 5 37 16 16 10 23 19 15 19 -8 0 2 15 22 35 20 19 39 35
43 35 3 0 15 11 26 25 11 14 26 25 34 25 19 0 104 85 104 105 0 8 4 15 8 15
13 0 52 36 52 48 0 5 7 13 16 16 12 5 15 14 10 38 -6 33 7 58 30 58 11 0 14
-38 14 -210z m-270 192 c0 -5 -14 -21 -32 -38 -24 -23 -29 -25 -23 -9 4 11 10
28 12 38 5 17 43 25 43 9z m550 -37 c7 -8 8 -15 2 -15 -5 0 -15 7 -22 15 -7 8
-8 15 -2 15 5 0 15 -7 22 -15z m14 -53 c8 -13 -10 -33 -30 -33 -10 0 -37 2
-59 5 -27 3 -45 0 -57 -11 -15 -13 -16 -13 -11 6 3 12 6 21 7 21 0 0 26 9 56
19 52 18 80 15 94 -7z m2100 -18 c9 -3 16 -9 16 -13 0 -12 -110 -85 -205 -136
-49 -27 -92 -52 -95 -56 -14 -20 -380 -146 -550 -189 -120 -30 -246 -50 -256
-41 -3 3 -132 4 -287 2 -221 -2 -305 1 -390 14 -225 34 -368 84 -466 163 -50
41 -88 113 -97 188 -6 43 -5 47 8 34 8 -8 20 -35 27 -59 25 -86 156 -188 322
-250 267 -100 740 -96 1134 9 168 45 457 145 559 195 50 24 127 66 171 94 86
54 86 54 109 45z m-2745 -60 c-31 -33 -36 -22 -8 17 13 19 25 27 27 20 2 -7
-6 -23 -19 -37z m553 -100 c29 -22 69 -50 89 -62 59 -36 208 -89 319 -114 94
-21 129 -23 345 -23 301 1 488 28 779 115 106 32 153 38 96 13 -116 -51 -397
-122 -600 -150 -174 -24 -483 -24 -605 0 -186 37 -343 102 -430 179 -59 52
-81 85 -89 133 l-6 40 24 -45 c14 -25 48 -63 78 -86z m-1107 96 c5 -8 -64 -60
-81 -60 -3 0 7 15 23 34 29 35 47 44 58 26z m535 -159 c0 -12 -29 -41 -41 -41
-14 0 -11 17 7 34 17 18 34 21 34 7z m-558 -53 c-2 -10 -8 -21 -13 -24 -11 -6
-12 37 -2 62 6 16 7 16 13 -2 4 -10 5 -27 2 -36z m38 -7 c5 -11 10 -52 10 -91
0 -69 -11 -110 -30 -110 -5 0 -5 13 1 30 12 32 8 144 -5 173 -11 24 11 22 24
-2z m915 -83 c14 -34 19 -79 23 -215 2 -115 1 -173 -6 -173 -6 0 -13 8 -15 18
-3 9 -5 -5 -6 -33 -1 -27 -8 -84 -15 -125 l-12 -75 -8 50 c-30 208 -61 378
-77 429 -10 34 -19 67 -19 73 0 12 95 93 109 93 5 0 16 -19 26 -42z m-642 10
c6 -19 -3 -38 -18 -38 -18 0 -28 17 -21 35 7 18 33 20 39 3z m514 -138 c28
-85 53 -255 58 -399 4 -113 4 -114 -5 -33 -10 92 -37 185 -51 176 -5 -3 -18
15 -29 40 -10 25 -21 46 -23 46 -2 0 4 -33 13 -73 24 -99 45 -316 33 -328 -7
-7 -22 23 -43 83 -17 51 -39 104 -47 118 -14 24 -14 24 -9 -15 15 -117 17
-221 4 -245 -28 -53 -49 -39 -138 92 -91 133 -199 253 -270 301 -25 17 -47 32
-49 34 -6 4 40 43 52 43 18 0 107 -62 118 -81 12 -22 29 -25 29 -5 0 18 -67
75 -97 82 -24 6 -30 19 -13 29 14 9 65 -20 105 -60 19 -19 37 -35 40 -35 24 0
-51 84 -86 95 -21 7 -17 25 6 25 7 0 39 -23 69 -51 31 -28 56 -45 56 -38 0 21
-41 66 -74 83 -27 14 -28 16 -10 21 10 4 31 13 46 21 14 8 32 14 40 14 7 0 26
7 42 15 35 18 39 16 82 -51 19 -30 37 -54 39 -54 12 0 2 21 -40 78 -44 60 -44
62 -24 73 11 6 32 8 45 5 17 -5 24 -2 24 8 0 19 49 58 69 54 10 -2 25 -29 38
-68z m-491 45 c4 -8 3 -23 0 -32 -6 -15 -8 -15 -22 -2 -8 9 -12 23 -8 32 8 21
23 22 30 2z m685 -27 c34 -64 28 -337 -10 -455 l-19 -58 1 267 c1 148 5 268 9
268 4 0 13 -10 19 -22z m-992 -111 c-16 -42 -15 -102 2 -123 6 -7 4 -16 -5
-23 -11 -9 -15 -2 -20 39 -4 27 -4 79 0 115 6 60 8 65 23 51 14 -15 14 -20 0
-59z m301 69 c0 -11 -19 -15 -25 -6 -3 5 1 10 9 10 9 0 16 -2 16 -4z m797
-104 c36 -53 125 -147 154 -163 37 -19 19 10 -31 52 -27 23 -57 53 -66 67 -19
29 -23 31 121 -69 61 -42 134 -89 164 -103 l53 -28 -24 -26 c-34 -37 -95 -153
-104 -196 -3 -20 -8 -36 -11 -36 -2 0 -26 22 -52 49 -82 84 -164 111 -232 75
-30 -15 -31 -15 -24 6 7 21 6 21 -44 -5 -41 -20 -51 -22 -51 -10 0 8 6 15 14
15 18 0 30 32 62 165 16 63 28 141 28 182 1 40 3 73 6 73 3 0 19 -22 37 -48z
m-831 9 c-4 -5 0 -12 6 -14 8 -4 9 -6 2 -6 -6 -1 -17 6 -24 14 -10 12 -9 15 4
15 10 0 15 -4 12 -9z m-79 -21 c17 -13 34 -18 47 -14 21 6 21 6 1 -10 -22 -17
-50 -21 -40 -6 13 21 -25 21 -54 1 -36 -26 -41 -26 -41 0 0 11 5 17 10 14 6
-3 10 0 10 9 0 13 13 23 33 25 5 1 20 -8 34 -19z m-10 -46 c-3 -3 -12 -4 -19
-1 -8 3 -5 6 6 6 11 1 17 -2 13 -5z m-77 -24 c9 13 10 13 10 0 0 -8 -8 -20
-17 -26 -15 -9 -18 -7 -20 14 -1 18 1 21 8 11 8 -12 10 -12 19 1z m-45 -30
c-3 -5 -11 -10 -16 -10 -6 0 -7 5 -4 10 3 6 11 10 16 10 6 0 7 -4 4 -10z
m1421 -73 c17 -8 46 -18 67 -22 57 -11 55 -25 -3 -25 -40 0 -68 8 -120 36 -38
20 -76 45 -86 56 -17 18 -14 18 47 -5 37 -14 79 -32 95 -40z m742 20 c3 -12
-4 -20 -17 -24 -12 -3 -21 -10 -21 -16 0 -5 -8 -16 -17 -23 -15 -11 -21 -10
-36 9 l-17 22 9 -26 c16 -45 -18 -56 -38 -13 -14 31 -14 30 47 65 53 31 85 33
90 6z m-153 -68 c10 -30 -13 -41 -41 -21 -28 20 -30 29 -6 35 33 9 41 7 47
-14z m-141 -34 c-1 -22 -3 -53 -4 -70 -2 -16 0 -102 4 -190 4 -88 4 -165 -1
-171 -4 -5 -19 -18 -33 -28 -26 -19 -17 -19 35 -1 19 6 19 6 2 -8 -19 -16
-186 -32 -261 -25 -36 3 -40 7 -60 53 -18 42 -21 70 -21 175 l0 125 -63 -3
c-34 -2 -75 -8 -90 -13 -18 -5 -4 -6 42 -2 63 5 68 4 63 -13 -4 -11 -9 -31
-12 -45 -6 -25 -10 -26 -80 -28 l-73 -2 9 40 c14 63 78 190 105 207 25 17 279
43 384 40 l55 -1 -1 -40z m-704 -191 c0 -14 -21 -19 -33 -7 -9 9 13 34 24 27
5 -3 9 -12 9 -20z m-105 -66 c7 -39 8 -40 21 -23 12 17 14 17 14 2 0 -22 28
-22 32 0 3 15 4 15 21 -1 11 -12 24 -15 35 -10 16 7 16 7 0 11 -21 5 -21 8 -8
34 14 26 27 24 34 -6 11 -44 -9 -65 -59 -65 -25 0 -45 -5 -45 -10 0 -6 -13 -4
-29 5 -20 10 -32 11 -36 5 -4 -6 -15 -8 -26 -5 -10 4 -29 -1 -41 -9 -12 -9
-27 -16 -32 -16 -13 0 25 34 47 43 20 7 18 34 -2 30 -6 -2 -11 10 -11 27 0 37
7 38 22 3 12 -27 13 -26 16 22 l3 50 19 -23 c10 -12 21 -41 25 -64z m393 -4
c25 -7 30 -24 7 -24 -8 0 -15 -5 -15 -11 0 -6 -14 -9 -32 -7 -20 2 -32 8 -30
16 1 7 -8 12 -20 12 -19 0 -20 -2 -8 -11 12 -8 10 -9 -10 -5 -14 3 -29 6 -34
6 -5 0 -3 7 4 15 13 15 93 21 138 9z m-498 -44 c0 -5 -5 -10 -11 -10 -5 0 -7
5 -4 10 3 6 8 10 11 10 2 0 4 -4 4 -10z m347 -22 c-3 -8 -6 -5 -6 6 -1 11 2
17 5 13 3 -3 4 -12 1 -19z m81 7 c53 -16 74 -41 25 -29 -27 6 -28 6 -8 -10 20
-17 20 -17 -2 -12 -13 4 -31 8 -41 11 -24 7 -50 -33 -27 -41 24 -10 17 -26 -7
-19 -19 5 -17 3 7 -15 28 -20 29 -21 5 -15 -25 6 -25 6 -5 -11 19 -16 19 -16
-10 -10 l-30 7 25 -22 25 -21 -29 5 -30 5 24 -18 c35 -27 18 -35 -27 -14 -45
23 -45 32 2 110 19 32 35 67 35 79 0 18 7 35 15 35 1 0 25 -7 53 -15z m-241
-27 c-3 -8 -6 -5 -6 6 -1 11 2 17 5 13 3 -3 4 -12 1 -19z m-60 -30 c-3 -7 -5
-2 -5 12 0 14 2 19 5 13 2 -7 2 -19 0 -25z"/>
<path d="M3140 2430 c-25 -10 -37 -19 -27 -19 20 -1 87 25 87 33 0 9 -12 6
-60 -14z"/>
<path d="M2846 2282 c-27 -3 -26 -5 21 -27 28 -12 53 -30 56 -39 7 -18 52 -21
144 -10 59 7 62 24 5 24 -21 0 -56 9 -77 21 -46 23 -107 36 -149 31z"/>
<path d="M3128 2233 c7 -3 16 -2 19 1 4 3 -2 6 -13 5 -11 0 -14 -3 -6 -6z"/>
<path d="M2870 2216 c0 -9 7 -16 16 -16 17 0 14 22 -4 28 -7 2 -12 -3 -12 -12z"/>
<path d="M2760 2210 c0 -5 5 -10 10 -10 6 0 10 5 10 10 0 6 -4 10 -10 10 -5 0
-10 -4 -10 -10z"/>
<path d="M2820 2210 c0 -5 5 -10 10 -10 6 0 10 5 10 10 0 6 -4 10 -10 10 -5 0
-10 -4 -10 -10z"/>
<path d="M2954 2171 c-13 -15 -30 -21 -57 -21 -55 0 -36 -18 26 -24 106 -11
297 -15 297 -6 0 4 -12 13 -27 18 l-28 10 35 2 c32 2 31 3 -20 16 -30 7 -89
16 -132 20 -70 6 -78 5 -94 -15z"/>
<path d="M2820 2140 c0 -5 7 -10 15 -10 8 0 15 5 15 10 0 6 -7 10 -15 10 -8 0
-15 -4 -15 -10z"/>
<path d="M2770 2130 c0 -5 5 -10 10 -10 6 0 10 5 10 10 0 6 -4 10 -10 10 -5 0
-10 -4 -10 -10z"/>
<path d="M2780 2060 c0 -5 5 -10 10 -10 6 0 10 5 10 10 0 6 -4 10 -10 10 -5 0
-10 -4 -10 -10z"/>
<path d="M490 1832 c0 -7 61 -45 70 -43 10 2 5 26 -5 26 -5 0 -14 3 -20 6 -21
12 -45 18 -45 11z"/>
<path d="M1227 1405 c-36 -34 -34 -41 3 -13 17 12 30 25 30 30 0 12 -3 10 -33
-17z"/>
<path d="M800 781 c25 -22 49 -41 54 -41 16 0 -38 51 -69 66 -25 13 -23 9 15
-25z"/>
<path d="M2273 523 c9 -2 23 -2 30 0 6 3 -1 5 -18 5 -16 0 -22 -2 -12 -5z"/>
<path d="M2128 513 c7 -3 16 -2 19 1 4 3 -2 6 -13 5 -11 0 -14 -3 -6 -6z"/>
<path d="M1973 503 c9 -2 25 -2 35 0 9 3 1 5 -18 5 -19 0 -27 -2 -17 -5z"/>
<path d="M1550 373 c0 -17 5 -35 10 -38 13 -8 13 35 0 55 -7 11 -10 7 -10 -17z"/>
<path d="M1852 3318 c-30 -30 -10 -72 53 -112 52 -34 165 -126 165 -136 0 -5
-8 -10 -17 -12 -14 -3 -12 -7 12 -21 27 -15 28 -16 8 -17 -22 0 -23 0 -4 -19
10 -10 25 -21 32 -24 14 -5 10 -7 -37 -22 -8 -3 -12 -9 -9 -15 4 -6 -8 -10
-29 -10 -45 0 -59 -20 -14 -21 l33 -1 -40 -13 -40 -13 48 -1 c30 -1 46 3 42 9
-3 6 1 10 10 10 12 0 15 5 11 16 -4 12 -2 15 9 10 8 -3 15 -1 15 4 0 6 4 10
10 10 5 0 25 15 44 34 19 19 38 32 42 28 4 -4 0 4 -9 18 -9 14 -29 45 -44 69
-29 47 -56 75 -180 177 -80 67 -91 72 -111 52z"/>
<path d="M2913 3128 c3 -10 2 -20 -3 -23 -6 -4 -10 -14 -10 -25 0 -21 30 -36
40 -20 5 7 11 6 20 -5 10 -12 15 -13 21 -4 5 9 12 8 24 -5 10 -9 19 -15 21
-13 10 10 -9 34 -39 51 -18 11 -43 28 -56 40 -20 17 -23 18 -18 4z"/>
<path d="M1330 3039 c-13 -24 -4 -41 10 -19 10 16 13 40 5 40 -2 0 -9 -9 -15
-21z"/>
<path d="M2670 2970 c-12 -17 -20 -40 -18 -53 3 -21 4 -21 24 8 26 37 39 75
25 75 -5 0 -19 -14 -31 -30z"/>
<path d="M2779 2943 c-13 -62 -4 -233 11 -233 5 0 18 16 30 35 25 40 32 109
18 166 -9 32 -15 39 -34 39 -13 0 -25 -3 -25 -7z"/>
<path d="M3140 2932 c0 -15 28 -47 35 -40 8 8 -13 48 -25 48 -6 0 -10 -4 -10
-8z"/>
<path d="M2408 2914 c-8 -12 -9 -164 -2 -176 13 -20 24 19 23 82 0 66 -11 111
-21 94z"/>
<path d="M2617 2904 c-4 -4 -7 -20 -7 -36 0 -33 -17 -38 -23 -5 -2 12 -5 -1
-6 -29 0 -28 5 -58 12 -68 12 -16 15 -10 30 50 15 61 12 105 -6 88z"/>
<path d="M2980 2897 c0 -8 9 -22 20 -32 25 -22 26 -35 2 -35 -10 0 -27 -7 -38
-15 -18 -15 -17 -16 16 -9 42 8 90 34 90 49 0 15 -55 55 -75 55 -8 0 -15 -6
-15 -13z"/>
<path d="M2005 2860 c3 -5 13 -10 21 -10 8 0 12 5 9 10 -3 6 -13 10 -21 10 -8
0 -12 -4 -9 -10z"/>
<path d="M2220 2849 c0 -6 -7 -18 -16 -26 -8 -9 -13 -24 -11 -34 3 -11 1 -21
-4 -24 -11 -8 31 -93 49 -100 23 -8 25 0 12 41 -15 44 -16 94 -2 103 12 7 -3
51 -18 51 -5 0 -10 -5 -10 -11z"/>
<path d="M1941 2831 c-11 -7 -6 -12 20 -19 38 -10 49 -7 49 14 0 16 -46 19
-69 5z"/>
<path d="M1920 2792 c0 -5 12 -14 27 -21 21 -10 28 -9 34 1 15 23 10 28 -26
28 -19 0 -35 -4 -35 -8z"/>
<path d="M2050 2685 c-10 -12 -9 -15 6 -15 11 1 30 7 44 15 l25 14 -31 1 c-17
0 -37 -7 -44 -15z"/>
<path d="M2350 2689 c0 -7 8 -37 19 -68 37 -110 40 -126 35 -151 -4 -20 -3
-22 5 -9 15 23 -8 199 -26 199 -7 0 -13 6 -13 14 0 8 -4 18 -10 21 -5 3 -10 1
-10 -6z"/>
<path d="M2121 2608 c-19 -5 -44 -16 -55 -24 -11 -8 -30 -14 -42 -14 -23 0
-27 -26 -6 -39 22 -13 9 -50 -20 -57 -16 -3 -49 -17 -73 -31 -68 -38 -132
-165 -118 -235 9 -48 26 -26 39 51 9 54 19 80 38 100 15 15 23 30 20 34 -6 6
52 35 104 51 18 6 22 4 22 -14 0 -32 51 -77 96 -86 25 -5 60 -2 97 8 64 17 79
9 58 -30 -8 -15 -7 -21 3 -25 14 -6 86 66 86 84 0 13 -18 11 -24 -3 -4 -7 -4
-2 -2 12 7 36 -12 110 -39 151 -37 57 -119 86 -184 67z m59 -72 c0 -1 -4 -16
-10 -32 -7 -20 -6 -44 3 -79 16 -67 37 -66 57 5 14 48 19 55 43 58 34 4 44
-17 26 -59 -17 -42 -64 -69 -119 -69 -66 0 -90 21 -90 76 0 24 4 44 9 44 5 0
13 9 16 21 7 21 65 53 65 35z"/>
<path d="M2065 2280 c45 -22 61 -24 70 -10 4 6 3 10 -2 9 -4 -1 -10 0 -13 1
-3 1 -14 3 -25 5 -11 2 -31 6 -45 9 -15 4 -9 -2 15 -14z"/>
<path d="M1880 2241 c0 -5 19 -25 41 -46 35 -32 46 -36 75 -32 19 3 36 1 39
-4 10 -15 40 -10 57 10 8 10 22 21 29 23 8 3 11 8 8 12 -3 3 -24 -1 -47 -10
-51 -21 -93 -13 -155 26 -26 16 -47 26 -47 21z"/>
<path d="M2238 2093 c7 -3 16 -2 19 1 4 3 -2 6 -13 5 -11 0 -14 -3 -6 -6z"/>
<path d="M1960 2075 l-25 -14 26 -1 c16 0 26 5 26 15 0 8 -1 15 -1 15 -1 -1
-12 -7 -26 -15z"/>
<path d="M2185 2080 c3 -5 11 -10 16 -10 6 0 7 5 4 10 -3 6 -11 10 -16 10 -6
0 -7 -4 -4 -10z"/>
<path d="M2053 2073 c9 -2 23 -2 30 0 6 3 -1 5 -18 5 -16 0 -22 -2 -12 -5z"/>
<path d="M1790 2045 c0 -8 4 -15 9 -15 5 0 11 7 15 15 3 9 0 15 -9 15 -8 0
-15 -7 -15 -15z"/>
<path d="M1970 2030 c-12 -8 -11 -10 7 -10 12 0 25 5 28 10 8 13 -15 13 -35 0z"/>
<path d="M2090 2000 c-8 -5 -10 -10 -5 -10 6 0 17 5 25 10 8 5 11 10 5 10 -5
0 -17 -5 -25 -10z"/>
<path d="M2235 1990 c-3 -5 -1 -10 4 -10 6 0 11 5 11 10 0 6 -2 10 -4 10 -3 0
-8 -4 -11 -10z"/>
<path d="M1816 1943 c-10 -10 -7 -35 4 -28 6 3 7 -1 4 -10 -5 -11 -1 -14 15
-12 25 4 53 27 33 27 -7 0 -12 6 -12 13 0 13 -33 20 -44 10z"/>
<path d="M1628 1869 c-35 -18 -38 -23 -38 -65 0 -63 21 -107 78 -162 62 -61
150 -104 277 -136 146 -37 222 -46 395 -44 l155 2 -155 6 c-105 4 -132 7 -85
9 l70 4 -85 8 c-47 4 -107 12 -135 17 l-50 10 45 2 c41 2 42 3 15 9 -27 6 -28
8 -12 17 16 9 10 13 -39 22 -31 7 -80 12 -108 12 -35 0 -46 3 -36 10 11 7 9
11 -13 19 -16 6 -34 11 -41 11 -19 0 -27 12 -16 25 6 8 -1 17 -22 30 -18 10
-45 32 -61 48 -27 28 -27 30 -11 48 20 22 7 25 -20 4 -26 -20 -42 -19 -25 1
10 12 10 17 0 23 -7 5 -15 27 -18 50 -6 46 -13 48 -65 20z m205 -216 c-7 -2
-19 -2 -25 0 -7 3 -2 5 12 5 14 0 19 -2 13 -5z"/>
<path d="M1890 1879 c0 -5 9 -9 20 -9 11 0 20 2 20 4 0 2 -9 6 -20 9 -11 3
-20 1 -20 -4z"/>
<path d="M2688 1493 c6 -2 18 -2 25 0 6 3 1 5 -13 5 -14 0 -19 -2 -12 -5z"/>
<path d="M2623 1483 c9 -2 23 -2 30 0 6 3 -1 5 -18 5 -16 0 -22 -2 -12 -5z"/>
<path d="M2523 1473 c15 -2 37 -2 50 0 12 2 0 4 -28 4 -27 0 -38 -2 -22 -4z"/>
<path d="M1437 1233 c-10 -9 -9 -61 2 -67 4 -3 6 5 4 18 -3 13 0 27 6 30 7 4
9 1 5 -8 -6 -17 29 -69 40 -59 13 13 5 54 -14 73 -21 21 -32 24 -43 13z"/>
<path d="M1762 1048 c-20 -20 -14 -67 13 -93 61 -62 128 10 74 79 -22 28 -66
35 -87 14z m62 -4 c9 -3 16 -16 16 -29 0 -19 -4 -22 -22 -17 -19 5 -20 7 -5
10 9 2 17 8 17 14 0 5 -6 8 -13 5 -6 -2 -18 2 -25 9 -10 12 -10 14 2 14 8 0
21 -3 30 -6z"/>
<path d="M1954 993 c-9 -35 12 -49 87 -58 69 -8 92 4 87 44 -3 29 -28 38 -115
40 -49 1 -53 -1 -59 -26z"/>
<path d="M2332 998 c-30 -30 3 -87 39 -68 23 13 25 43 3 64 -19 19 -26 20 -42
4z"/>
<path d="M3430 728 c0 -19 2 -20 10 -8 13 19 13 30 0 30 -5 0 -10 -10 -10 -22z"/>
<path d="M3475 728 c-11 -37 -16 -92 -7 -83 12 12 27 95 18 95 -4 0 -8 -6 -11
-12z"/>
<path d="M3392 680 c0 -19 2 -27 5 -17 2 9 2 25 0 35 -3 9 -5 1 -5 -18z"/>
<path d="M2923 616 c-130 -43 -205 -152 -206 -302 0 -72 23 -143 51 -152 7 -2
4 11 -9 33 -30 50 -37 156 -15 221 24 69 64 124 117 157 82 50 164 48 226 -6
38 -34 83 -117 83 -154 0 -13 3 -23 6 -23 11 0 84 55 84 64 0 10 -66 93 -95
119 -57 50 -163 69 -242 43z"/>
<path d="M3402 605 c0 -16 2 -22 5 -12 2 9 2 23 0 30 -3 6 -5 -1 -5 -18z"/>
<path d="M2911 576 c-47 -17 -108 -71 -131 -117 -46 -90 -45 -203 3 -263 l23
-28 52 26 c29 14 52 32 52 39 0 6 4 18 9 26 8 12 12 12 25 2 17 -14 58 3 90
38 15 17 16 23 6 36 -7 8 -19 15 -26 15 -8 0 -14 4 -14 8 0 9 -44 32 -61 32
-6 0 -7 -9 -3 -22 13 -42 22 -90 16 -83 -4 3 -14 30 -22 58 l-16 52 -59 5
c-52 5 -56 7 -32 14 15 5 40 6 56 3 l28 -6 -3 52 -3 52 7 -47 c5 -26 11 -50
14 -53 3 -4 32 -12 65 -20 51 -12 60 -12 76 2 17 16 16 18 -10 45 -15 15 -21
28 -15 28 24 0 62 -33 84 -71 26 -47 43 -38 33 19 -21 124 -134 198 -244 158z
m74 -26 c-3 -5 -10 -10 -16 -10 -5 0 -9 5 -9 10 0 6 7 10 16 10 8 0 12 -4 9
-10z"/>
<path d="M3085 380 c-8 -14 -7 -15 23 -25 20 -6 23 -4 20 11 -4 22 -33 31 -43
14z"/>
<path d="M1556 75 c-11 -8 -16 -15 -10 -15 5 0 18 7 28 15 11 8 16 15 10 15
-5 0 -18 -7 -28 -15z"/>
</g>
</svg>
